<svg xmlns="http://www.w3.org/2000/svg" viewBox="0 0 20 20" fill="none">
  <path d="M1.66669 7.50008V4.16675C1.66669 3.72472 1.84228 3.3008 2.15484 2.98824C2.4674 2.67567 2.89133 2.50008 3.33335 2.50008H6.58335C6.86209 2.49735 7.13706 2.56457 7.3831 2.6956C7.62914 2.82662 7.83839 3.01727 7.99169 3.25008L8.66669 4.25008C8.81844 4.48052 9.02504 4.66968 9.26794 4.80058C9.51083 4.93148 9.78243 5.00003 10.0584 5.00008H16.6667C17.1087 5.00008 17.5326 5.17567 17.8452 5.48824C18.1578 5.8008 18.3334 6.22472 18.3334 6.66675V15.0001C18.3334 15.4421 18.1578 15.866 17.8452 16.1786C17.5326 16.4912 17.1087 16.6667 16.6667 16.6667H3.33335C2.89133 16.6667 2.4674 16.4912 2.15484 16.1786C1.84228 15.866 1.66669 15.4421 1.66669 15.0001V14.1667" stroke="currentColor" stroke-width="1.66667" stroke-linecap="round" stroke-linejoin="round"/>
  <path d="M1.66669 10.8333H10" stroke="currentColor" stroke-width="1.66667" stroke-linecap="round" stroke-linejoin="round"/>
  <path d="M7.5 13.3333L10 10.8333L7.5 8.33325" stroke="currentColor" stroke-width="1.66667" stroke-linecap="round" stroke-linejoin="round"/>
</svg>
