<svg xmlns="http://www.w3.org/2000/svg" viewBox="0 0 20 20" fill="none">
  <path d="M4.99996 11.6667L6.24996 9.25008C6.38585 8.9802 6.59256 8.75233 6.84797 8.59087C7.10338 8.4294 7.39787 8.34041 7.69996 8.33341H16.6666M16.6666 8.33341C16.9212 8.33297 17.1726 8.39086 17.4013 8.50265C17.6301 8.61444 17.8302 8.77715 17.9863 8.9783C18.1424 9.17945 18.2503 9.41369 18.3018 9.66304C18.3533 9.91239 18.3469 10.1702 18.2833 10.4167L17 15.4167C16.9071 15.7764 16.6968 16.0947 16.4024 16.3212C16.108 16.5476 15.7464 16.6693 15.375 16.6667H3.33329C2.89127 16.6667 2.46734 16.4912 2.15478 16.1786C1.84222 15.866 1.66663 15.4421 1.66663 15.0001V4.16675C1.66663 3.72472 1.84222 3.3008 2.15478 2.98824C2.46734 2.67567 2.89127 2.50008 3.33329 2.50008H6.58329C6.86203 2.49735 7.137 2.56457 7.38304 2.6956C7.62908 2.82662 7.83833 3.01727 7.99163 3.25008L8.66663 4.25008C8.81838 4.48052 9.02498 4.66968 9.26788 4.80058C9.51077 4.93148 9.78237 5.00003 10.0583 5.00008H15C15.442 5.00008 15.8659 5.17567 16.1785 5.48824C16.491 5.8008 16.6666 6.22472 16.6666 6.66675V8.33341Z" stroke="currentColor" stroke-width="1.66667" stroke-linecap="round" stroke-linejoin="round"/>
</svg>
