<svg xmlns="http://www.w3.org/2000/svg" viewBox="0 0 20 20" fill="none">
  <path d="M3.33337 11.6666C3.17567 11.6671 3.02106 11.6229 2.8875 11.5391C2.75393 11.4552 2.6469 11.3352 2.57883 11.193C2.51076 11.0507 2.48445 10.8921 2.50295 10.7355C2.52146 10.5789 2.58402 10.4307 2.68337 10.3083L10.9334 1.80827C10.9953 1.73683 11.0796 1.68856 11.1725 1.67138C11.2655 1.65419 11.3615 1.66911 11.4448 1.71369C11.5281 1.75826 11.5939 1.82985 11.6311 1.91669C11.6684 2.00353 11.6751 2.10047 11.65 2.1916L10.05 7.20827C10.0029 7.33454 9.98701 7.47037 10.0039 7.6041C10.0207 7.73784 10.0698 7.8655 10.1468 7.97612C10.2238 8.08674 10.3265 8.17703 10.4461 8.23923C10.5657 8.30144 10.6986 8.3337 10.8334 8.33327H16.6667C16.8244 8.33273 16.979 8.37695 17.1126 8.46078C17.2461 8.54462 17.3532 8.66464 17.4212 8.80688C17.4893 8.94913 17.5156 9.10778 17.4971 9.26438C17.4786 9.42099 17.4161 9.56913 17.3167 9.6916L9.0667 18.1916C9.00482 18.263 8.92048 18.3113 8.82755 18.3285C8.73461 18.3457 8.6386 18.3308 8.55526 18.2862C8.47192 18.2416 8.40621 18.17 8.36892 18.0832C8.33163 17.9963 8.32497 17.8994 8.35003 17.8083L9.95003 12.7916C9.99721 12.6653 10.0131 12.5295 9.99621 12.3958C9.97936 12.262 9.93032 12.1344 9.85329 12.0237C9.77627 11.9131 9.67356 11.8228 9.55397 11.7606C9.43439 11.6984 9.3015 11.6662 9.1667 11.6666H3.33337Z" stroke="currentColor" stroke-width="1.66667" stroke-linecap="round" stroke-linejoin="round"/>
</svg>
