<svg xmlns="http://www.w3.org/2000/svg" viewBox="0 0 20 20" fill="none">
  <path d="M9.18077 2.345C9.21648 2.15384 9.31792 1.98118 9.46752 1.85693C9.61712 1.73269 9.80547 1.66467 9.99994 1.66467C10.1944 1.66467 10.3828 1.73269 10.5324 1.85693C10.682 1.98118 10.7834 2.15384 10.8191 2.345L11.6949 6.97667C11.7571 7.30596 11.9172 7.60885 12.1541 7.84581C12.3911 8.08277 12.694 8.2428 13.0233 8.305L17.6549 9.18084C17.8461 9.21654 18.0188 9.31798 18.143 9.46758C18.2673 9.61719 18.3353 9.80553 18.3353 10C18.3353 10.1945 18.2673 10.3828 18.143 10.5324C18.0188 10.682 17.8461 10.7835 17.6549 10.8192L13.0233 11.695C12.694 11.7572 12.3911 11.9172 12.1541 12.1542C11.9172 12.3912 11.7571 12.694 11.6949 13.0233L10.8191 17.655C10.7834 17.8462 10.682 18.0188 10.5324 18.1431C10.3828 18.2673 10.1944 18.3353 9.99994 18.3353C9.80547 18.3353 9.61712 18.2673 9.46752 18.1431C9.31792 18.0188 9.21648 17.8462 9.18077 17.655L8.30494 13.0233C8.24274 12.694 8.08271 12.3912 7.84575 12.1542C7.60879 11.9172 7.3059 11.7572 6.97661 11.695L2.34494 10.8192C2.15378 10.7835 1.98112 10.682 1.85687 10.5324C1.73263 10.3828 1.66461 10.1945 1.66461 10C1.66461 9.80553 1.73263 9.61719 1.85687 9.46758C1.98112 9.31798 2.15378 9.21654 2.34494 9.18084L6.97661 8.305C7.3059 8.2428 7.60879 8.08277 7.84575 7.84581C8.08271 7.60885 8.24274 7.30596 8.30494 6.97667L9.18077 2.345Z" stroke="currentColor" stroke-width="1.66667" stroke-linecap="round" stroke-linejoin="round"/>
  <path d="M16.6667 1.66663V4.99996" stroke="currentColor" stroke-width="1.66667" stroke-linecap="round" stroke-linejoin="round"/>
  <path d="M18.3333 3.33337H15" stroke="currentColor" stroke-width="1.66667" stroke-linecap="round" stroke-linejoin="round"/>
  <path d="M3.33335 18.3333C4.25383 18.3333 5.00002 17.5871 5.00002 16.6667C5.00002 15.7462 4.25383 15 3.33335 15C2.41288 15 1.66669 15.7462 1.66669 16.6667C1.66669 17.5871 2.41288 18.3333 3.33335 18.3333Z" stroke="currentColor" stroke-width="1.66667" stroke-linecap="round" stroke-linejoin="round"/>
</svg>
